<svg xmlns="http://www.w3.org/2000/svg" width="100" height="100" viewBox="0 0 100 100">
  <!-- Background Circle -->
  <circle cx="50" cy="50" r="45" fill="#3949ab" />
  
  <!-- Brain Icon -->
  <path d="M65,35 C65,25 55,20 50,25 C45,20 35,25 35,35 C35,45 45,50 50,45 C55,50 65,45 65,35" fill="none" stroke="white" stroke-width="3" stroke-linecap="round" stroke-linejoin="round" />
  
  <!-- Flashcards -->
  <rect x="30" y="55" width="25" height="20" rx="2" fill="white" transform="rotate(-10 30 55)" />
  <rect x="35" y="60" width="25" height="20" rx="2" fill="white" transform="rotate(-5 35 60)" />
  <rect x="40" y="65" width="25" height="20" rx="2" fill="white" />
  
  <!-- AI Circuit Pattern -->
  <circle cx="50" cy="50" r="35" fill="none" stroke="rgba(255,255,255,0.3)" stroke-width="1" stroke-dasharray="2,3" />
  <circle cx="50" cy="50" r="25" fill="none" stroke="rgba(255,255,255,0.3)" stroke-width="1" stroke-dasharray="2,3" />
  
  <!-- Dots representing neural connections -->
  <circle cx="30" cy="40" r="2" fill="white" />
  <circle cx="70" cy="40" r="2" fill="white" />
  <circle cx="40" cy="30" r="2" fill="white" />
  <circle cx="60" cy="30" r="2" fill="white" />
  <circle cx="50" cy="25" r="2" fill="white" />
  
  <!-- Connection lines -->
  <line x1="30" y1="40" x2="40" y2="30" stroke="white" stroke-width="1" opacity="0.6" />
  <line x1="70" y1="40" x2="60" y2="30" stroke="white" stroke-width="1" opacity="0.6" />
  <line x1="40" y1="30" x2="50" y2="25" stroke="white" stroke-width="1" opacity="0.6" />
  <line x1="60" y1="30" x2="50" y2="25" stroke="white" stroke-width="1" opacity="0.6" />
</svg>
